<svg width="0" height="0" class="hidden">

    <symbol fill="none" xmlns="http://www.w3.org/2000/svg" viewBox="0 0 32 32" id="Apple Podcasts">
        <g clip-path="url(#clip0_2_30)">
            <path fill-rule="evenodd" clip-rule="evenodd"
                d="M31.3672 27.7357C31.0561 28.5258 30.3384 29.6383 29.3205 30.4219C28.7329 30.8745 28.0313 31.3072 27.0676 31.5927C26.0403 31.8971 24.7749 32 23.2 32H8.8001C7.22534 32 5.95999 31.8971 4.93258 31.5927C3.96888 31.3072 3.2674 30.8745 2.67962 30.4219C1.66187 29.6382 0.943989 28.5258 0.632929 27.7357C0.00635821 26.1438 0 24.3376 0 23.2V8.79997C0 7.66243 0.00635821 5.85622 0.632929 4.26429C0.943989 3.47418 1.66174 2.36169 2.67962 1.57806C3.26727 1.12546 3.96888 0.692826 4.93258 0.407328C5.95986 0.102881 7.22521 0 8.8001 0H23.2002C24.7749 0 26.0403 0.102881 27.0677 0.407328C28.0314 0.692826 28.7329 1.12559 29.3206 1.57806C30.3384 2.36182 31.0563 3.47418 31.3673 4.26429C31.9939 5.85622 32.0003 7.66243 32.0003 8.79997V23.2C32.0001 24.3375 31.9938 26.1437 31.3672 27.7357Z"
                fill="url(#paint0_linear_2_30)"></path>
            <path
                d="M18.3209 18.3933C17.8407 17.8867 16.9973 17.5619 16.0016 17.5619C15.0059 17.5619 14.1625 17.8867 13.6823 18.3933C13.4318 18.6577 13.2993 18.9287 13.2575 19.3148C13.1767 20.0625 13.2221 20.7062 13.3097 21.7354C13.3931 22.7161 13.5516 24.024 13.7583 25.356C13.9055 26.3039 14.025 26.8155 14.1339 27.1819C14.3104 27.7756 14.97 28.2949 16.0016 28.2949C17.0331 28.2949 17.6928 27.7755 17.8693 27.1819C17.9781 26.8155 18.0977 26.3039 18.2448 25.356C18.4516 24.024 18.61 22.7161 18.6935 21.7354C18.7811 20.7061 18.8265 20.0623 18.7456 19.3148C18.7039 18.9289 18.5714 18.6577 18.3209 18.3933ZM13.3852 13.8822C13.3852 15.3285 14.5577 16.501 16.0041 16.501C17.4505 16.501 18.623 15.3285 18.623 13.8822C18.623 12.4358 17.4505 11.2633 16.0041 11.2633C14.5577 11.2633 13.3852 12.4358 13.3852 13.8822ZM15.9716 3.54704C9.84669 3.56447 4.8279 8.53341 4.7521 14.658C4.69055 19.6193 7.85762 23.8632 12.28 25.4188C12.3873 25.4565 12.4963 25.3674 12.4794 25.2549C12.4214 24.8696 12.3667 24.4825 12.3165 24.1019C12.2987 23.9674 12.213 23.8514 12.0887 23.7971C8.5933 22.27 6.15251 18.7644 6.19168 14.7037C6.24305 9.37477 10.5946 5.03036 15.9236 4.98725C21.3714 4.94325 25.8174 9.36219 25.8174 14.8C25.8174 18.82 23.3873 22.2826 19.9191 23.7975C19.7949 23.8518 19.7097 23.9681 19.692 24.1026C19.6418 24.483 19.5871 24.87 19.5292 25.2549C19.5122 25.3674 19.6212 25.4565 19.7285 25.4189C24.1086 23.8782 27.2573 19.7003 27.2573 14.8001C27.257 8.58415 22.1914 3.52924 15.9716 3.54704ZM15.7683 8.70954C19.2404 8.57512 22.1079 11.3607 22.1079 14.8034C22.1079 16.5543 21.3661 18.1351 20.1805 19.2483C20.0799 19.3427 20.0258 19.4767 20.0336 19.6144C20.0572 20.0332 20.0486 20.4402 20.0207 20.8998C20.0132 21.0222 20.1506 21.1004 20.2519 21.0314C22.2401 19.6727 23.5478 17.3881 23.5478 14.8034C23.5478 10.5478 20.0031 7.10439 15.7112 7.27073C11.7226 7.42537 8.52259 10.7139 8.47147 14.7053C8.43789 17.3303 9.7536 19.6559 11.7674 21.0316C11.8685 21.1007 12.0054 21.0224 11.9979 20.9C11.9699 20.4402 11.9614 20.0332 11.9849 19.6144C11.9927 19.4768 11.9388 19.3428 11.8384 19.2486C10.6158 18.1007 9.86501 16.4558 9.91282 14.6398C9.99701 11.444 12.5736 8.83328 15.7683 8.70954Z"
                fill="white"></path>
        </g>
        <defs>
            <linearGradient id="paint0_linear_2_30" x1="16.0001" y1="0" x2="16.0001" y2="32"
                gradientUnits="userSpaceOnUse">
                <stop stop-color="#F452FF"></stop>
                <stop offset="1" stop-color="#832BC1"></stop>
            </linearGradient>
            <clipPath id="clip0_2_30">
                <rect width="32" height="32" fill="white"></rect>
            </clipPath>
        </defs>
    </symbol>

    <symbol xmlns="http://www.w3.org/2000/svg" fill="none" stroke="#000000" viewBox="0 0 64 64" id="arrow-right">
        <polyline points="44 40 52 32 44 24"></polyline>
        <line x1="52" y1="32" x2="12" y2="32"></line>
    </symbol>
    <symbol fill="#000000" xmlns="http://www.w3.org/2000/svg" viewBox="0 0 1920 1920" id="facebook">
        <path
            d="m1416.013 791.915-30.91 225.617h-371.252v789.66H788.234v-789.66H449.808V791.915h338.426V585.137c0-286.871 176.207-472.329 449.09-472.329 116.87 0 189.744 6.205 231.822 11.845l-3.272 213.66-173.5.338c-4.737-.451-117.771-9.25-199.332 65.655-52.568 48.169-79.191 117.433-79.191 205.65v181.96h402.162Zm-247.276-304.018c44.446-41.401 113.71-36.889 118.787-36.663l289.467-.113 6.204-417.504-43.544-10.717C1511.675 16.02 1426.053 0 1237.324 0 901.268 0 675.425 235.206 675.425 585.137v93.97H337v451.234h338.425V1920h451.234v-789.66h356.7l61.932-451.233H1126.66v-69.152c0-54.937 14.214-96 42.078-122.058Z"
            fill-rule="evenodd"></path>
    </symbol>
    <symbol fill="none" xmlns="http://www.w3.org/2000/svg" viewBox="0 -0.5 25 25" id="instagram">
        <path fill-rule="evenodd" clip-rule="evenodd"
            d="M15.5 5H9.5C7.29086 5 5.5 6.79086 5.5 9V15C5.5 17.2091 7.29086 19 9.5 19H15.5C17.7091 19 19.5 17.2091 19.5 15V9C19.5 6.79086 17.7091 5 15.5 5Z"
            stroke="#000000" stroke-width="1.5" stroke-linecap="round" stroke-linejoin="round"></path>
        <path fill-rule="evenodd" clip-rule="evenodd"
            d="M12.5 15C10.8431 15 9.5 13.6569 9.5 12C9.5 10.3431 10.8431 9 12.5 9C14.1569 9 15.5 10.3431 15.5 12C15.5 12.7956 15.1839 13.5587 14.6213 14.1213C14.0587 14.6839 13.2956 15 12.5 15Z"
            stroke="#000000" stroke-width="1.5" stroke-linecap="round" stroke-linejoin="round"></path>
        <rect x="15.5" y="9" width="2" height="2" rx="1" transform="rotate(-90 15.5 9)" fill="#000000"></rect>
        <rect x="16" y="8.5" width="1" height="1" rx="0.5" transform="rotate(-90 16 8.5)" stroke="#000000"
            stroke-linecap="round"></rect>
    </symbol>
    <symbol fill="none" xmlns="http://www.w3.org/2000/svg" viewBox="0 0 32 32" id="Pocket Casts">
        <g clip-path="url(#clip0_2_26)">
            <path
                d="M15.6592 30C23.3912 30 29.6592 23.732 29.6592 16C29.6592 8.26801 23.3912 2 15.6592 2C7.92719 2 1.65918 8.26801 1.65918 16C1.65918 23.732 7.92719 30 15.6592 30Z"
                fill="white"></path>
            <path
                d="M16.1863 0C7.61062 0 0.65918 7.16334 0.65918 16C0.65918 24.8366 7.61062 32 16.1863 32C24.7621 32 31.7135 24.8366 31.7135 16C31.7135 7.16334 24.7621 0 16.1863 0ZM20.9963 16.148C20.9963 13.4927 18.9072 11.3397 16.3299 11.3397C13.7531 11.3397 11.664 13.4923 11.664 16.148C11.664 18.8033 13.7531 20.9559 16.3299 20.9559V23.7036C12.2806 23.7036 8.9975 20.321 8.9975 16.148C8.9975 11.9751 12.2802 8.5924 16.3299 8.5924C20.3797 8.5924 23.6625 11.9751 23.6625 16.148H20.9963ZM25.4955 16.148C25.4955 10.9321 21.3922 6.7036 16.3299 6.7036C11.2682 6.7036 7.16483 10.9321 7.16483 16.148C7.16483 21.3638 11.2682 25.592 16.3299 25.592V28.7404C9.58097 28.7404 4.10941 23.1024 4.10941 16.148C4.10941 9.19327 9.58097 3.5556 16.3299 3.5556C23.0793 3.5556 28.5506 9.19327 28.5506 16.148H25.4955Z"
                fill="#F43E37"></path>
        </g>
        <defs>
            <clipPath id="clip0_2_26">
                <rect width="32" height="32" fill="white"></rect>
            </clipPath>
        </defs>
    </symbol>
    <symbol fill="none" xmlns="http://www.w3.org/2000/svg" viewBox="0 0 32 32" id="Podcast Addict">
        <g clip-path="url(#clip0_2_50)">
            <path
                d="M15.9375 30C23.704 30 30 23.704 30 15.9375C30 8.171 23.704 1.875 15.9375 1.875C8.171 1.875 1.875 8.171 1.875 15.9375C1.875 23.704 8.171 30 15.9375 30Z"
                fill="white" stroke="#363F46" stroke-width="2.42578" stroke-linecap="round"></path>
            <path
                d="M8.30304 9.99902C8.30304 9.99902 6.3584 12.1928 6.3584 16.0258C6.3584 19.8588 8.30304 21.9642 8.30304 21.9642"
                fill="white"></path>
            <path
                d="M8.30304 9.99902C8.30304 9.99902 6.3584 12.1928 6.3584 16.0258C6.3584 19.8588 8.30304 21.9642 8.30304 21.9642"
                stroke="#FC7E0F" stroke-width="2.42578" stroke-linecap="round"></path>
            <path
                d="M23.7959 9.99902C23.7959 9.99902 25.7405 12.1928 25.7405 16.0258C25.7405 19.8588 23.7959 21.9642 23.7959 21.9642"
                fill="white"></path>
            <path
                d="M23.7959 9.99902C23.7959 9.99902 25.7405 12.1928 25.7405 16.0258C25.7405 19.8588 23.7959 21.9642 23.7959 21.9642"
                stroke="#FC7E0F" stroke-width="2.42578" stroke-linecap="round"></path>
            <path
                d="M20.6943 12.5625C20.6943 12.5625 22.0042 14.1938 21.972 16.0179C21.9318 18.2116 20.7104 19.417 20.7104 19.417"
                fill="white"></path>
            <path
                d="M20.6943 12.5625C20.6943 12.5625 22.0042 14.1938 21.972 16.0179C21.9318 18.2116 20.7104 19.417 20.7104 19.417"
                stroke="#FC7E0F" stroke-width="2.42578" stroke-linecap="round"></path>
            <path
                d="M11.3408 12.5625C11.3408 12.5625 10.0309 14.1938 10.0631 16.0179C10.1033 18.2116 11.3247 19.417 11.3247 19.417"
                fill="white"></path>
            <path
                d="M11.3408 12.5625C11.3408 12.5625 10.0309 14.1938 10.0631 16.0179C10.1033 18.2116 11.3247 19.417 11.3247 19.417"
                stroke="#FC7E0F" stroke-width="2.42578" stroke-linecap="round"></path>
            <path
                d="M15.9358 18.1206C17.1413 18.1206 18.1186 17.1433 18.1186 15.9377C18.1186 14.7322 17.1413 13.7549 15.9358 13.7549C14.7302 13.7549 13.7529 14.7322 13.7529 15.9377C13.7529 17.1433 14.7302 18.1206 15.9358 18.1206Z"
                fill="#363F46"></path>
            <path d="M16.3047 17.9767L14.7562 17.5605L12.1777 27.1924L13.7262 27.6085L16.3047 17.9767Z" fill="#363F46">
            </path>
            <path d="M15.7051 17.964L17.2467 17.5547L19.8116 27.1934L18.2699 27.6027L15.7051 17.964Z" fill="#363F46">
            </path>
            <path d="M14.2725 23.1618L14.8455 22.5752L18.8155 26.4429L18.2425 27.0296L14.2725 23.1618Z" fill="#363F46">
            </path>
            <path d="M17.6351 23.1825L17.1166 22.6572L13.1807 26.5659L13.6991 27.0912L17.6351 23.1825Z" fill="#363F46">
            </path>
        </g>
        <defs>
            <clipPath id="clip0_2_50">
                <rect width="32" height="32" fill="white"></rect>
            </clipPath>
        </defs>
    </symbol>
    <symbol fill="none" xmlns="http://www.w3.org/2000/svg" viewBox="0 0 48 48" id="SoundCloud">
        <circle cx="24" cy="24" r="20" fill="#FF8800"></circle>
        <path fill-rule="evenodd" clip-rule="evenodd"
            d="M13.16 26.8651C13.21 26.8651 13.252 26.8244 13.2593 26.7677L13.5266 24.6598L13.2593 22.5045C13.2513 22.4472 13.21 22.4078 13.16 22.4078C13.1086 22.4078 13.0666 22.4485 13.0606 22.5052L12.824 24.6598L13.0606 26.7671C13.0673 26.8244 13.1086 26.8651 13.16 26.8651ZM12.2727 26.0638C12.3213 26.0638 12.3613 26.0251 12.3687 25.9704L12.5767 24.6598L12.3687 23.3265C12.3613 23.2712 12.322 23.2332 12.2727 23.2332C12.2227 23.2332 12.1827 23.2718 12.176 23.3272L12 24.6605L12.176 25.9704C12.1827 26.0258 12.2227 26.0638 12.2727 26.0638ZM14.2226 22.1032C14.2153 22.0352 14.1653 21.9859 14.1026 21.9859C14.0393 21.9859 13.9879 22.0352 13.9819 22.1032C13.9819 22.1039 13.7579 24.6605 13.7579 24.6605L13.9819 27.1237C13.9879 27.1931 14.0393 27.2417 14.1026 27.2417C14.1653 27.2417 14.2153 27.193 14.2226 27.1244L14.4779 24.6605L14.2226 22.1032ZM15.0533 27.3404C15.1266 27.3404 15.1873 27.2817 15.1939 27.2031L15.4339 24.6618L15.1939 22.0332C15.1873 21.9552 15.1266 21.8952 15.0533 21.8952C14.9786 21.8952 14.9186 21.9545 14.9126 22.0339L14.7013 24.6618L14.9126 27.2031C14.9186 27.2817 14.9786 27.3404 15.0533 27.3404ZM16.0112 27.3824C16.0972 27.3824 16.1666 27.3144 16.1732 27.2237L16.1726 27.2244L16.3999 24.6618L16.1726 22.2232C16.1666 22.1339 16.0972 22.0652 16.0112 22.0652C15.9252 22.0652 15.8566 22.1339 15.8506 22.2245L15.6512 24.6618L15.8506 27.2244C15.8559 27.3144 15.9252 27.3824 16.0112 27.3824ZM17.3712 24.6625L17.1599 20.6966C17.1539 20.5959 17.0745 20.5166 16.9785 20.5166C16.8812 20.5166 16.8012 20.5959 16.7972 20.6966L16.6099 24.6625L16.7972 27.225C16.8019 27.325 16.8819 27.4044 16.9785 27.4044C17.0752 27.4044 17.1545 27.3257 17.1599 27.2244V27.2257L17.3712 24.6625ZM17.9512 27.4084C18.0592 27.4084 18.1485 27.3204 18.1538 27.2084V27.2104L18.3518 24.6631L18.1538 19.7899C18.1485 19.6779 18.0592 19.5899 17.9512 19.5899C17.8425 19.5899 17.7538 19.6779 17.7492 19.7899C17.7492 19.7906 17.5732 24.6631 17.5732 24.6631L17.7492 27.209C17.7538 27.3204 17.8425 27.4084 17.9512 27.4084ZM18.9325 19.1633C18.8112 19.1633 18.7138 19.2606 18.7098 19.3846L18.5465 24.6631L18.7098 27.1837C18.7138 27.3064 18.8112 27.4037 18.9325 27.4037C19.0525 27.4037 19.1498 27.3064 19.1551 27.1824V27.1844L19.3385 24.6631L19.1551 19.3846C19.1505 19.2606 19.0525 19.1633 18.9325 19.1633ZM19.9218 27.4084C20.0538 27.4084 20.1611 27.3031 20.1651 27.1671V27.1684L20.3351 24.6638L20.1651 19.2066C20.1611 19.0706 20.0538 18.9646 19.9218 18.9646C19.7891 18.9646 19.6825 19.0706 19.6791 19.2066L19.5271 24.6638L19.6791 27.1684C19.6818 27.3031 19.7891 27.4084 19.9218 27.4084ZM20.9191 27.4057C21.0624 27.4057 21.1791 27.291 21.1824 27.1431V27.1457L21.3391 24.6631L21.1824 19.3453C21.1791 19.1986 21.0624 19.0833 20.9191 19.0833C20.7744 19.0833 20.6578 19.1986 20.6551 19.3459L20.5164 24.6631L20.6551 27.1444C20.6578 27.291 20.7744 27.4057 20.9191 27.4057ZM22.3504 24.6645L22.2071 19.5406C22.2037 19.3819 22.0791 19.2579 21.9231 19.2579C21.7671 19.2579 21.6417 19.3826 21.6384 19.5406L21.5124 24.6645L21.6384 27.1297C21.6417 27.2864 21.7664 27.411 21.9231 27.411C22.0784 27.411 22.2037 27.2864 22.2071 27.1284V27.1297L22.3504 24.6645ZM22.9364 27.4157C23.1004 27.4157 23.2377 27.2797 23.2397 27.1124V27.1144L23.3684 24.6651L23.2397 18.568C23.2377 18.4006 23.1004 18.264 22.9364 18.264C22.7704 18.264 22.6337 18.4006 22.6317 18.568L22.5164 24.6631C22.5164 24.6678 22.6317 27.1144 22.6317 27.1144C22.6337 27.2797 22.7704 27.4157 22.9364 27.4157ZM23.9443 17.692C23.7663 17.692 23.621 17.8373 23.619 18.016L23.4857 24.6658L23.619 27.0791C23.621 27.2557 23.767 27.4004 23.9443 27.4004C24.1203 27.4004 24.2663 27.255 24.2683 27.0771V27.0791L24.413 24.6658L24.2683 18.0153C24.2663 17.8366 24.1203 17.692 23.9443 17.692ZM24.8663 27.4177C24.8737 27.4184 32.9954 27.423 33.0481 27.423C34.678 27.423 36 26.1011 36 24.4705C36 22.8398 34.6787 21.5185 33.0481 21.5185C32.6441 21.5185 32.2581 21.6005 31.9068 21.7472C31.6721 19.0866 29.4409 17 26.7196 17C26.0536 17 25.405 17.1313 24.8317 17.3527C24.6083 17.4393 24.5497 17.528 24.5477 17.7V27.0691C24.5497 27.2497 24.689 27.3997 24.8663 27.4177Z"
            fill="white"></path>
    </symbol>
    <symbol fill="none" xmlns="http://www.w3.org/2000/svg" viewBox="0 0 18 18" id="star">
        <path
            d="M9.01265 14.5032L13.1626 17.1609C13.9226 17.6479 14.8526 16.9279 14.6526 16.0174L13.5526 11.0197L17.2226 7.65265C17.8926 7.03853 17.5326 5.87382 16.6526 5.79971L11.8226 5.36559L9.93265 0.643235C9.59265 -0.214412 8.43265 -0.214412 8.09265 0.643235L6.20265 5.355L1.37265 5.78912C0.492646 5.86324 0.132646 7.02794 0.802646 7.64206L4.47265 11.0091L3.37265 16.0068C3.17265 16.9174 4.10265 17.6374 4.86265 17.1503L9.01265 14.5032Z"
            fill="#FCFF51"></path>
    </symbol>
    <symbol version="1.1" xmlns="http://www.w3.org/2000/svg" xmlns:xlink="http://www.w3.org/1999/xlink"
        viewBox="0 0 48 48" id="spotify">
        <title>Spotify-color</title>
        <desc>Created with Sketch.</desc>
        <defs></defs>
        <g id="Icons" stroke="none" stroke-width="1" fill="none" fill-rule="evenodd">
            <g id="Color-" transform="translate(-200.000000, -460.000000)" fill="#00DA5A">
                <path
                    d="M238.16,481.36 C230.48,476.8 217.64,476.32 210.32,478.6 C209.12,478.96 207.92,478.24 207.56,477.16 C207.2,475.96 207.92,474.76 209,474.4 C217.52,471.88 231.56,472.36 240.44,477.64 C241.52,478.24 241.88,479.68 241.28,480.76 C240.68,481.6 239.24,481.96 238.16,481.36 M237.92,488.08 C237.32,488.92 236.24,489.28 235.4,488.68 C228.92,484.72 219.08,483.52 211.52,485.92 C210.56,486.16 209.48,485.68 209.24,484.72 C209,483.76 209.48,482.68 210.44,482.44 C219.2,479.8 230,481.12 237.44,485.68 C238.16,486.04 238.52,487.24 237.92,488.08 M235.04,494.68 C234.56,495.4 233.72,495.64 233,495.16 C227.36,491.68 220.28,490.96 211.88,492.88 C211.04,493.12 210.32,492.52 210.08,491.8 C209.84,490.96 210.44,490.24 211.16,490 C220.28,487.96 228.2,488.8 234.44,492.64 C235.28,493 235.4,493.96 235.04,494.68 M224,460 C210.8,460 200,470.8 200,484 C200,497.2 210.8,508 224,508 C237.2,508 248,497.2 248,484 C248,470.8 237.32,460 224,460"
                    id="Spotify"></path>
            </g>
        </g>
    </symbol>
    <symbol fill="none" xmlns="http://www.w3.org/2000/svg" viewBox="0 0 24 24" id="twitter">
        <path
            d="M23 2.9998C22.0424 3.67528 20.9821 4.19191 19.86 4.52981C19.2577 3.83732 18.4573 3.3465 17.567 3.12373C16.6767 2.90097 15.7395 2.957 14.8821 3.28426C14.0247 3.61152 13.2884 4.19421 12.773 4.95352C12.2575 5.71284 11.9877 6.61214 12 7.5298V8.52979C10.2426 8.57536 8.50127 8.18562 6.93101 7.39525C5.36074 6.60488 4.01032 5.43844 3 3.9998C3 3.9998 -1 12.9998 8 16.9998C5.94053 18.3978 3.48716 19.0987 1 18.9998C10 23.9998 21 18.9998 21 7.49979C21 7.21979 20.97 6.93981 20.92 6.66981C21.9406 5.6633 22.6608 4.39252 23 2.9998Z"
            stroke="white" stroke-width="2" stroke-linecap="round" stroke-linejoin="round"></path>
    </symbol>
</svg>